<svg xmlns="http://www.w3.org/2000/svg" viewBox="0 0 1275.32 286.07"><defs><style>.cls-1{isolation:isolate;}.cls-2,.cls-5{fill:#cecece;}.cls-2{stroke:#ff156f;stroke-miterlimit:10;stroke-width:0.25px;}.cls-3{opacity:0;mix-blend-mode:multiply;}.cls-4,.cls-6{fill:#fff;}.cls-6{font-size:41px;font-family:Lato-Regular, Lato;}.cls-7{letter-spacing:-0.03em;}.cls-8{letter-spacing:-0.01em;}</style></defs><title>header</title><g class="cls-1"><g id="name"><path class="cls-2" d="M707.75,317.15" transform="translate(-286.34 -221.33)"/><g class="cls-3"><path class="cls-4" d="M390.05,310.29c-1-11.68-1.62-22.28-2.85-43.46-.61-10.41-1.06-19.08-1.36-25.16l73.06-14.19-8.53-6.14c-24.59,5.48-50.66,10.44-78.12,14.56-30.09,4.52-58.79,7.59-85.91,9.55a9.64,9.64,0,0,0,1.76,4.83,7.08,7.08,0,0,0,4.14,2.79l73.4-8.18q1,31.82,3.21,66.06t5.62,66a20,20,0,0,0,4.46,7.93,15.39,15.39,0,0,0,7.3,4.45c2,1,4.5,1.75,6.52.46,4.67-3,3.48-15.07,1.63-34.09C391.9,330.17,390.66,317.39,390.05,310.29Z" transform="translate(-286.34 -221.33)"/><path class="cls-4" d="M813.89,375.91a6.37,6.37,0,0,0-4.65-1.7,9.86,9.86,0,0,0-5.82,2.12c-2.84,1.92-3,3.27-5,5-2.54,2.19-7.05,4.09-10.66,3-5.22-1.62-6.9-9-7.94-13.61a36.36,36.36,0,0,1-.47-13.49,97.06,97.06,0,0,1,3.34-16.45c4.14-14,13.82-34.9,21-53.15a9.57,9.57,0,0,0,.62-6.28c-2.23-7.56-17-12.31-24-8a55.66,55.66,0,0,1-5.72,3.71,40,40,0,0,1-6.46,2.76A15.59,15.59,0,0,0,766.52,268a15.12,15.12,0,0,0-6.85-5.91,8.62,8.62,0,0,0-11.91,8.4,21,21,0,0,0,14.71,14.94,41.47,41.47,0,0,1-23.36,15.82A37.07,37.07,0,0,0,733,284a36.14,36.14,0,0,0-6.88-7.6c-14.35-7.31-24.12-5.21-27.79-4.11-25.31,7.59-29.47,48.62-30.17,55.47a95.43,95.43,0,0,0,3.22,35.6,32.37,32.37,0,0,1-2.35,15.74,30.06,30.06,0,0,1-1.65,3.26c-.26,1.25-.58,2.59-1,4-.32,1.06-.65,2.06-1,3a14.94,14.94,0,0,0,9-7,14.76,14.76,0,0,0,1.52-9.91,30,30,0,0,0,38.79,13.09c21.88-9.88,23.91-42.79,24.06-46a96.75,96.75,0,0,0,.67-32.07,41.18,41.18,0,0,0,27.13-20.95A35.6,35.6,0,0,0,775,283c5.07-2.95,7.14-5.87,7.86-5.44s-.45,5.1-9.5,23.06a148.25,148.25,0,0,0-12.93,48.19,46.5,46.5,0,0,0,1.24,16.37A47.63,47.63,0,0,0,775,387.66a22,22,0,0,0,7.07,4.46,23,23,0,0,0,14.71.48,72.41,72.41,0,0,0,7.42-3.26c9-4.22,10.18-5.6,10.73-7.17A6.4,6.4,0,0,0,813.89,375.91Zm-99.2-93.55c2.41-2.26,6.51-1.26,7.21-1.09,9.68,2.36,12.45,20.31,12.66,21.72A22.57,22.57,0,0,1,723,300.78c-1.94-1-8-4-9.57-10.21C713.17,289.72,712,284.89,714.69,282.36Zm21.05,47.86a141.41,141.41,0,0,1-2.12,17.39c-1.78,7.45-6,19.33-16.65,28-4,3.25-8.8,7.17-14.12,6.26-9.69-1.65-14-18.14-15.34-23.37-7.58-29.12,9.76-58.65,18.8-71.91a20.45,20.45,0,0,0,2.56,9.12c4.36,7.68,12.9,10.17,17.55,11.52a40.48,40.48,0,0,0,8.94,1.54A141.36,141.36,0,0,1,735.75,330.22Zm28.36-48.45a10.72,10.72,0,0,1-10.55-10.91,4.91,4.91,0,0,1,2.81-4.63,5,5,0,0,1,4.1.17,11.87,11.87,0,0,1,3.69,4.28C766.72,275.78,764.47,281,764.1,281.77Z" transform="translate(-286.34 -221.33)"/><path class="cls-4" d="M662.16,383.14c-11.56-.55-17.9-34.13-18.46-40.85a82.07,82.07,0,0,1,0-14c6.81-21,13.26-37.29,18.06-48.65,5.05-12,9.74-21.9,8.14-35-.49-4-1.9-14.36-9.46-19.89-1-.75-6.52-4.77-12.58-2.94-3.88,1.17-6.39,4.26-8.8,8.08C631.66,241.65,629.21,254,628,261a261.63,261.63,0,0,0-3.63,30.7,414.92,414.92,0,0,0,1.88,59.9l-9.36,17c.43,4.79,1,9.65,1.78,14.46l10.87-21.26c1,3.51,5,15.79,16.51,23.2a33.85,33.85,0,0,0,15.51,5.26,17.53,17.53,0,0,0,7-2.38,34.86,34.86,0,0,1-.29-4.35c0-1.15,0-2.23.14-3.23C665.72,382.8,663.59,383.21,662.16,383.14ZM646.22,271.21c1.13-9.16,5.18-41.91,10.69-41.92,2.48,0,4.34,6.65,5,8.89,3.15,11.32-.08,21.64-2,27.5-5,15.46-10.29,31.11-16.15,47.56A329.71,329.71,0,0,1,646.22,271.21Z" transform="translate(-286.34 -221.33)"/><path class="cls-4" d="M514.63,313.07c-2,22.66-.25,36.37-3.13,58.37-.74,5.67-1.36,8.56-2.27,8.61-1.88.1-4.37-11.86-5.42-21.72-1.77-16.62,1.1-22.43-.15-38a112.21,112.21,0,0,0-4.23-22.72,53.29,53.29,0,0,0-12.36-4.2c-5.07-1.05-7.6-1.58-9.17-.33-3.54,2.81.33,11.23,1.57,22a67.68,67.68,0,0,1-2.68,27.25c-.75,8.46-3.37,20.52-12,30.59-3.37,3.92-7,8.17-11.44,7.79-8.89-.77-13.59-19.76-14.88-25-3.85-15.6-1.92-29.05-.19-40.43a160.67,160.67,0,0,1,6.09-25.59A35.12,35.12,0,0,1,450,279.62c3.09-3.87,7.12-8.92,12.39-9s7.54,4.7,11.39,3.48c2.49-.79,3.9-3.57,4.72-6A56,56,0,0,0,447,261.79a39.32,39.32,0,0,0-17.4,11.81c-1.7,2.06-5.6,7.25-9.46,25.89-3.13,15.12-5,24.38-3.72,37.31a91.34,91.34,0,0,0,8.7,30.48,33.91,33.91,0,0,0,15,17.39,32.56,32.56,0,0,0,18.38,3.85A31.88,31.88,0,0,0,471.59,378c3.89-5.49,5-11.08,6.89-20.95a130.63,130.63,0,0,0,1.94-14,73.39,73.39,0,0,0,11.74,39.74A16.29,16.29,0,0,0,514,389.54a30.72,30.72,0,0,0,3.72-8.39,31.2,31.2,0,0,0,1.06-8.84c-.05-5.22.08-10.44,0-15.66,0-2.58-.08-2.68-.19-7.37-.06-2.74-.16-7-.18-8.94-.08-6,.19-10.81.49-16.06,1.45-25.49,1.45-25.47,1.51-25.94a123.66,123.66,0,0,1,6-25c-.14-.58-.29-1.18-.4-1.8-.23-1.34-.23-2.23-.6-4.2a151.31,151.31,0,0,0-10,38C515,308.25,514.87,310.28,514.63,313.07Z" transform="translate(-286.34 -221.33)"/><path class="cls-4" d="M530.81,288.5c4.27,22.29,1.25,38.93,3.08,64.27a93.68,93.68,0,0,0,2.69,15.76c1.72,6.71,2.59,10.14,5.06,13.24,4.11,5.16,12.22,10,19.67,8.27,4.68-1.1,7.3-4.37,10.69-8.74,4.75-6.11,6.84-11.92,12.46-31.11,1.39-4.76,2.55-8.79,3.4-11.79l11,63.7a156,156,0,0,0-10.73,19.8A152.52,152.52,0,0,0,577,457.94a26.79,26.79,0,0,0,.19,10.38A14.79,14.79,0,0,0,589,481c1.58.73,9.45,4.14,17.86,1.07,8.85-3.23,14.68-12.33,14.06-22.56a234.44,234.44,0,0,0-5.48-71.18l4-7a49.11,49.11,0,0,1-2.55-13l-3.54,5.5-8.46-95.33a95.45,95.45,0,0,0-10.7-5.47c-6.13-2.67-7.33-2.44-8-2.13-3.51,1.64-2.09,10.35-1.42,15.14a205.81,205.81,0,0,1,1.64,37.44A157.08,157.08,0,0,1,575.69,358c-3.65,8.27-10.64,24.09-15,23.26-4.08-.77-4.09-15.68-4.12-41.46,0-21.52,1.22-33-2.13-51.65-1.08-6-2.3-10.83-3.14-13.94a30.7,30.7,0,0,0-11.93-6.58,32.27,32.27,0,0,0-13.76-.91c-.23.51-.44,1-.66,1.52.51,2.5,1.18,4.92,1.87,7.34m73.32,194.39c-.77,4.64-3.82,8.21-7.08,8.64-4.33.57-10.23-4.23-10.09-11.82a114.62,114.62,0,0,1,2.87-19.11,91.72,91.72,0,0,1,3.35-11.41,96.91,96.91,0,0,1,11.26-21.9,121.22,121.22,0,0,1,2,13c.26,2.66.54,6.35.57,14C603.08,462.52,600.52,467.5,600.12,469.94Z" transform="translate(-286.34 -221.33)"/><path class="cls-4" d="M1008.66,284.32a81.94,81.94,0,0,1-18,8.59c-3.61-5.25-15.59-21.4-31.28-21.58a38.7,38.7,0,0,0-6.5.6,27.41,27.41,0,0,0-5.43,1.39,23.15,23.15,0,0,0-9.08,6.39,22.48,22.48,0,0,0-3.07,4.63c1.06-.57,2.09-1.1,3.09-1.59A105.58,105.58,0,0,0,928,332.11a75.87,75.87,0,0,0,3.35,23.33,76.83,76.83,0,0,0,9.31,19.69,34.17,34.17,0,0,0,14.45,11.63,35,35,0,0,0,14,2.75,27.84,27.84,0,0,0,16-5.71c8.5-5.93,11.68-14.41,14.22-21.47,6.73-18.7,3.37-35.49,1.87-42.5a88.83,88.83,0,0,0-7.41-21.14l14.32-6.76A32.69,32.69,0,0,1,1008.66,284.32Zm-40.39-.77a3,3,0,0,1,1.15-2.22c1.92-1.12,5.54,1.93,7.07,3.22a29.67,29.67,0,0,1,7.93,10.78,13.58,13.58,0,0,1-8.94-.7C971,292.54,967.58,287.55,968.27,283.55Zm27.15,58.78c-.31,4.23-1.82,20-11,31a19.33,19.33,0,0,1-6,5c-1.36.71-7.83,3.85-14.28,1.23-5.55-2.26-7.92-7.52-10.38-12.89a39.51,39.51,0,0,1-3.09-10.23,93,93,0,0,1-2.31-19.14c-.35-22.22,7.43-39.69,13-49.63a21.91,21.91,0,0,0,25.08,12.58,83,83,0,0,1,7,19.08A79.34,79.34,0,0,1,995.42,342.33Z" transform="translate(-286.34 -221.33)"/><path class="cls-4" d="M900.82,274.85a150.69,150.69,0,0,1-3.18-26.69,146.59,146.59,0,0,1,.63-18c-7.54-5.08-18.07-11.17-21.6-7.91-1.82,1.68-1,5.11.25,13.3.83,5.57,1.08,9.23,1.08,9.23,1.34,9.81,2,14.72,2.44,17.55,1.4,9.18,5.1,29.8,11.07,56.93a151.27,151.27,0,0,0-11.75,16.27c-7.64,12.21-22.41,35.83-14.54,47.39,1.34,2,4,4.6,10,5.94a35.91,35.91,0,0,0,16.4.13,29.42,29.42,0,0,0,12.83-7.67,47.43,47.43,0,0,0,8.91-16c2.92-9.11,2.14-16.86,1.5-22.7C912.19,318.55,906.78,304.67,900.82,274.85Zm-5.08,79.75a72,72,0,0,1-2.62,15.69,57.47,57.47,0,0,1-4.35,10.17c-4.12,4.5-9.76,6.35-14.13,4.73-5.37-2-6.74-8.52-6.94-9.44-.42-2-.57-4.69,1.72-11.42a63.47,63.47,0,0,1,7-15,183.37,183.37,0,0,1,17-23A113.68,113.68,0,0,1,895.74,354.6Z" transform="translate(-286.34 -221.33)"/><path class="cls-4" d="M927.28,285.83a111.38,111.38,0,0,0-21.12,15.94,22,22,0,0,0,1.24,7.17c1.34-1.55,2.83-3.19,4.51-4.87l.36-.36a87.23,87.23,0,0,1,11.31-9.59,52.9,52.9,0,0,1,14.83-6.79c.59-1.61,1.25-3.28,2-5q.86-2,1.75-3.79A114.23,114.23,0,0,0,927.28,285.83Z" transform="translate(-286.34 -221.33)"/><path class="cls-4" d="M1123.42,272.33c-.44,0-1.14,0-2,0a6.58,6.58,0,0,0-1,0,4.09,4.09,0,0,0-2,1c-11.5,10.1-18,71-18,71-.79,7.36-1.48,13.54-2,18,0,0-.25,2-1,6-1.3,6.93-2.52,10.76-4.77,12.52a7.82,7.82,0,0,1-3.23,1.48,6.48,6.48,0,0,1-2,0,23.94,23.94,0,0,1,1.85,6.78c.09.78.14,1.52.15,2.22a9.37,9.37,0,0,0,5-1c3.38-1.81,4.64-5.59,5.26-7.8,3.85-13.61,6.83-49.86,7.12-53.32a137.77,137.77,0,0,1,4.1-23.59,147.24,147.24,0,0,1,10.52-28.29Z" transform="translate(-286.34 -221.33)"/><path class="cls-4" d="M1089.15,382.45a1.24,1.24,0,0,1-.27,0c-1.38-.2-2.17-3.25-2.43-4.3-2-7.95-5.65-71.85-6-77.83a31.63,31.63,0,0,0-.5-4c-1.65-8.69-7.3-19.42-14.91-22.09-10-3.52-24.45,5-35,21l-1.58-17.9a54,54,0,0,0,11.68-19.49,40.94,40.94,0,0,0,2.32-11.51,39.62,39.62,0,0,0-2.38-15.51c-.51-1-4-7.81-11.27-9.24-7.78-1.53-14.09,4.19-15.56,5.63-7.36,7.21-6.86,18.24-5.79,36.14a164.6,164.6,0,0,0,2,17.48v0a5.54,5.54,0,0,1,0,1.5c-.55,4.16-6.13,6.79-6,7s2.25-1.54,3-1-.07,2.83-1,5l4-2q1.58,13.66,2.74,28c1.76,22.15,2.49,43.27,2.47,63.22a11.56,11.56,0,0,0,10.05,8.34,12.25,12.25,0,0,0,9.56-3.89l-2.4-71.54a51.52,51.52,0,0,1,6.67-16.3c1.22-1.94,9.35-14.9,14.68-13.46,3.55,1,4.51,9.13,5.12,15.14,2.93,28.39,2.27,37.24,4.1,50.45,2,14.45,4.82,33,17.2,38.48a19.89,19.89,0,0,0,10,1.42c-.14-1.41-.26-2.88-.34-4.42S1089.15,383.85,1089.15,382.45Zm-63.72-132.12a48.85,48.85,0,0,1,1-16c1.27-5.26,2.42-5.85,3-6,2.58-.67,6.65,4.1,8,9a16.14,16.14,0,0,1,.14,7.59c-1.85,9.48-6.93,18.4-10.14,23.41C1026.45,261.46,1025.83,255.39,1025.42,250.33Z" transform="translate(-286.34 -221.33)"/><path class="cls-4" d="M1200.18,375.95c-5.49-16.08-3.4-51.4-3.4-51.4a141.21,141.21,0,0,0-5.17-43,8.65,8.65,0,0,0-1.28-4c-4.26-6.66-18.33-5.79-27-2.3-12.23,4.9-17.35,16.33-18.67,19.55l-1.05-17a54.66,54.66,0,0,0-10.94-4.56c-5.21-1.53-7.82-2.3-10.4-1.69a10.94,10.94,0,0,0-2.63,1c.17,1.76.44,3.46.73,5.15l.09-.13c.17,1.23.37,2.64.57,4.21.07.47.13.94.18,1.42.63,5,1.33,11.35,1.89,18.74,2.29,30.28,2,54.54,2,54.54-.22,19.34-1.31,27.89,4.72,32.22,4,2.86,10.57,3.54,14,.66,3.88-3.26,2.77-10.32,2.4-13-1.66-11.88-2.06-32.33-.33-67a34.35,34.35,0,0,1,6.65-17.62c.38-.54,9.68-13.42,15-11.57,9.8,3.44,2.28,56.42,9.13,86,.82,3.54,2.81,12.26,10,18.46a21.47,21.47,0,0,0,12.82,5.72c6.59.41,12.07-2.7,12-3a13.37,13.37,0,0,0-2,0h0l-2-6a5.23,5.23,0,0,1-3,0C1201.72,380.45,1200.59,377.15,1200.18,375.95Z" transform="translate(-286.34 -221.33)"/><path class="cls-4" d="M1348.81,374.56A33.19,33.19,0,0,1,1345,364c-1.68-13.21-3-27.19-3.93-41.89-1.39-22.74-1.47-44-.73-63.56l39.78.36.93-1.72-8-4.92-33,1.2c.77-4.47,2.4-14.86,1.73-22.85a7.86,7.86,0,0,0-1.28-4.1c-1.11-1.57-2.8-2.46-11.17-4.13-6.54-1.3-7.2-1.09-7.73-.8-2.49,1.37-2.93,5-3.37,12.93-.27,4.92-.54,11.35-.6,18.94l-47.94,2,2.26,4.56,45.31-.73a312.78,312.78,0,0,1-16.63,38.45c-4.4,8.56-8.93,16.38-13.41,23.49q2.29,3,4.67,6.07l27-44.51a216.8,216.8,0,0,0,1.69,50.92c4.24,27.57,11.24,36.69,14,40,2.19,2.59,15.48,18.27,27.24,15.53a8.75,8.75,0,0,1-.39-3.85,16.65,16.65,0,0,1-3-1C1353,381.94,1350.31,377.23,1348.81,374.56Z" transform="translate(-286.34 -221.33)"/><path class="cls-4" d="M1561.66,433.9a20.73,20.73,0,0,1-5.58-1.94c-19.13-10-13.83-47.54-13.32-50.85,1.19-8.13,4.75-34.19,3.62-59.41-.77-17.19-3.44-27.79-5-33.22-1.13-3.92-2.27-7.12-3.08-9.29a46,46,0,0,0-13.36-5,47,47,0,0,0-11.11-.92,65.44,65.44,0,0,0-16.93,9.24,62.29,62.29,0,0,0-13.46,14,51.46,51.46,0,0,0,3.1-13.76,50.59,50.59,0,0,0,.1-6.85c-3.59-2.83-9.66-6.71-17-7.19-3.48-.23-5,.45-6,1.26-2.1,1.79-1.53,4.52-1.77,8-.59,8.61-5.79,17.09-12.36,20.79a18.56,18.56,0,0,1-4.06,1.68c-.16-2.51-1.32-16.58-12.78-23.93-13.95-9-33.18-1.56-43.25,7a39.4,39.4,0,0,0-11.24,16.2,75.84,75.84,0,0,0-8.07,30.29,74.18,74.18,0,0,0,1.86,20.5,130.64,130.64,0,0,1-.62,17.13c-1,10.22-2.62,13.58-5.47,15.63a11.66,11.66,0,0,1-4.54,1.92l-.39-.16q.47,2,.9,4.12a12.43,12.43,0,0,0,2-.59c7.37-3,11.7-12.79,11.08-24.19a33.81,33.81,0,0,0,5,11.08c1.85,2.65,9,12.9,21.26,14.18,10.58,1.1,18.85-5.32,22.26-8,13.88-10.83,16.93-27.49,20.29-45.83a158.2,158.2,0,0,0,2.59-27,52.29,52.29,0,0,0,8.8-5.88,50.57,50.57,0,0,0,7.32-7.45c2.61,40.51,5.51,70.33,7.16,79.73.52,3,1.59,8.07,5.78,11.52a17,17,0,0,0,8,3.49,9.44,9.44,0,0,0,4.32-.77,9,9,0,0,0,4.49-4.43,255.68,255.68,0,0,1-7.53-74.25,66.48,66.48,0,0,1,13.57-20.36c5-5.13,10.41-10.31,15-9.2,2.22.54,7.17,3.26,10,30.61,1.43,13.72,6,47.05.33,75.76a46.9,46.9,0,0,0,6.49,34.79,33.82,33.82,0,0,0,5.13,6.71,36.54,36.54,0,0,0,3,2.71C1542,434.79,1550.94,435.64,1561.66,433.9ZM1432.51,342c-1.35,5.11-2.9,9.86-4.53,14.24a41.46,41.46,0,0,1-12.89,18.29c-4.56,3.7-8.44,6.57-12.17,6-13.41-2.23-27.52-50.86-6.66-79.06a50,50,0,0,1,16.35-14,30.86,30.86,0,0,0,24.79,21.87A150.24,150.24,0,0,1,1432.51,342Zm4-39.8c-3.08,1.85-11.41-3.52-14.68-10.43-.54-1.13-3.43-7.25-.44-10,1.48-1.38,3.79-1.36,5-1.24a20.9,20.9,0,0,1,9.6,9.62C1437.82,294,1439.13,300.66,1436.53,302.22Z" transform="translate(-286.34 -221.33)"/><path class="cls-4" d="M1283.42,325.33,1250.37,273l-24.14-1.69c.39,1.89.93,4.7,1.36,8.12,2.29,18.19-.87,32.47-4.2,46.05-7.7,31.4-12.67,51.65-17,56.08q.5,3.84,1,7.74c.66-.14,1.33-.29,2-.5,9.87-3,20.15-45.15,26.05-102.37a117.73,117.73,0,0,1,15.5,16.71,121.33,121.33,0,0,1,18.75,35.91,63.87,63.87,0,0,0-11.79,14.1c-4.61,7.49-9.19,14.91-7.51,23.64,1.46,7.6,7,12.59,10.41,15.09a43.71,43.71,0,0,0,18.34.83,44.25,44.25,0,0,0,16.75-6.54,23.15,23.15,0,0,0,6.79-11c.5-1.95,1.47-7-3.51-19.94a109.61,109.61,0,0,0-10.73-20.89l7-13-5-5q-2,2.39-4,5Q1284.86,323.36,1283.42,325.33Zm-.66,55.7a17,17,0,0,1-10,7.14c-1.56.36-8.08,1.87-12.59-2.69-4-4-3.42-9.72-3.33-10.55A62.28,62.28,0,0,1,1265,357.7a60.9,60.9,0,0,1,8-9.57,35.1,35.1,0,0,1,8.19,12.42A36.57,36.57,0,0,1,1282.76,381Z" transform="translate(-286.34 -221.33)"/><path class="cls-4" d="M390.05,310.29c-1-11.68-1.62-22.28-2.85-43.46-.61-10.41-1.06-19.08-1.36-25.16l73.06-14.19-8.53-6.14c-24.59,5.48-50.66,10.44-78.12,14.56-30.09,4.52-58.79,7.59-85.91,9.55a9.64,9.64,0,0,0,1.76,4.83,7.08,7.08,0,0,0,4.14,2.79l73.4-8.18q1,31.82,3.21,66.06t5.62,66a20,20,0,0,0,4.46,7.93,15.39,15.39,0,0,0,7.3,4.45c2,1,4.5,1.75,6.52.46,4.67-3,3.48-15.07,1.63-34.09C391.9,330.17,390.66,317.39,390.05,310.29Z" transform="translate(-286.34 -221.33)"/><path class="cls-4" d="M813.89,375.91a6.37,6.37,0,0,0-4.65-1.7,9.86,9.86,0,0,0-5.82,2.12c-2.84,1.92-3,3.27-5,5-2.54,2.19-7.05,4.09-10.66,3-5.22-1.62-6.9-9-7.94-13.61a36.36,36.36,0,0,1-.47-13.49,97.06,97.06,0,0,1,3.34-16.45c4.14-14,13.82-34.9,21-53.15a9.57,9.57,0,0,0,.62-6.28c-2.23-7.56-17-12.31-24-8a55.66,55.66,0,0,1-5.72,3.71,40,40,0,0,1-6.46,2.76A15.59,15.59,0,0,0,766.52,268a15.12,15.12,0,0,0-6.85-5.91,8.62,8.62,0,0,0-11.91,8.4,21,21,0,0,0,14.71,14.94,41.47,41.47,0,0,1-23.36,15.82A37.07,37.07,0,0,0,733,284a36.14,36.14,0,0,0-6.88-7.6c-14.35-7.31-24.12-5.21-27.79-4.11-25.31,7.59-29.47,48.62-30.17,55.47a95.43,95.43,0,0,0,3.22,35.6,32.37,32.37,0,0,1-2.35,15.74,30.06,30.06,0,0,1-1.65,3.26c-.26,1.25-.58,2.59-1,4-.32,1.06-.65,2.06-1,3a14.94,14.94,0,0,0,9-7,14.76,14.76,0,0,0,1.52-9.91,30,30,0,0,0,38.79,13.09c21.88-9.88,23.91-42.79,24.06-46a96.75,96.75,0,0,0,.67-32.07,41.18,41.18,0,0,0,27.13-20.95A35.6,35.6,0,0,0,775,283c5.07-2.95,7.14-5.87,7.86-5.44s-.45,5.1-9.5,23.06a148.25,148.25,0,0,0-12.93,48.19,46.5,46.5,0,0,0,1.24,16.37A47.63,47.63,0,0,0,775,387.66a22,22,0,0,0,7.07,4.46,23,23,0,0,0,14.71.48,72.41,72.41,0,0,0,7.42-3.26c9-4.22,10.18-5.6,10.73-7.17A6.4,6.4,0,0,0,813.89,375.91Zm-99.2-93.55c2.41-2.26,6.51-1.26,7.21-1.09,9.68,2.36,12.45,20.31,12.66,21.72A22.57,22.57,0,0,1,723,300.78c-1.94-1-8-4-9.57-10.21C713.17,289.72,712,284.89,714.69,282.36Zm21.05,47.86a141.41,141.41,0,0,1-2.12,17.39c-1.78,7.45-6,19.33-16.65,28-4,3.25-8.8,7.17-14.12,6.26-9.69-1.65-14-18.14-15.34-23.37-7.58-29.12,9.76-58.65,18.8-71.91a20.45,20.45,0,0,0,2.56,9.12c4.36,7.68,12.9,10.17,17.55,11.52a40.48,40.48,0,0,0,8.94,1.54A141.36,141.36,0,0,1,735.75,330.22Zm28.36-48.45a10.72,10.72,0,0,1-10.55-10.91,4.91,4.91,0,0,1,2.81-4.63,5,5,0,0,1,4.1.17,11.87,11.87,0,0,1,3.69,4.28C766.72,275.78,764.47,281,764.1,281.77Z" transform="translate(-286.34 -221.33)"/><path class="cls-4" d="M662.16,383.14c-11.56-.55-17.9-34.13-18.46-40.85a82.07,82.07,0,0,1,0-14c6.81-21,13.26-37.29,18.06-48.65,5.05-12,9.74-21.9,8.14-35-.49-4-1.9-14.36-9.46-19.89-1-.75-6.52-4.77-12.58-2.94-3.88,1.17-6.39,4.26-8.8,8.08C631.66,241.65,629.21,254,628,261a261.63,261.63,0,0,0-3.63,30.7,414.92,414.92,0,0,0,1.88,59.9l-9.36,17c.43,4.79,1,9.65,1.78,14.46l10.87-21.26c1,3.51,5,15.79,16.51,23.2a33.85,33.85,0,0,0,15.51,5.26,17.53,17.53,0,0,0,7-2.38,34.86,34.86,0,0,1-.29-4.35c0-1.15,0-2.23.14-3.23C665.72,382.8,663.59,383.21,662.16,383.14ZM646.22,271.21c1.13-9.16,5.18-41.91,10.69-41.92,2.48,0,4.34,6.65,5,8.89,3.15,11.32-.08,21.64-2,27.5-5,15.46-10.29,31.11-16.15,47.56A329.71,329.71,0,0,1,646.22,271.21Z" transform="translate(-286.34 -221.33)"/><path class="cls-4" d="M514.63,313.07c-2,22.66-.25,36.37-3.13,58.37-.74,5.67-1.36,8.56-2.27,8.61-1.88.1-4.37-11.86-5.42-21.72-1.77-16.62,1.1-22.43-.15-38a112.21,112.21,0,0,0-4.23-22.72,53.29,53.29,0,0,0-12.36-4.2c-5.07-1.05-7.6-1.58-9.17-.33-3.54,2.81.33,11.23,1.57,22a67.68,67.68,0,0,1-2.68,27.25c-.75,8.46-3.37,20.52-12,30.59-3.37,3.92-7,8.17-11.44,7.79-8.89-.77-13.59-19.76-14.88-25-3.85-15.6-1.92-29.05-.19-40.43a160.67,160.67,0,0,1,6.09-25.59A35.12,35.12,0,0,1,450,279.62c3.09-3.87,7.12-8.92,12.39-9s7.54,4.7,11.39,3.48c2.49-.79,3.9-3.57,4.72-6A56,56,0,0,0,447,261.79a39.32,39.32,0,0,0-17.4,11.81c-1.7,2.06-5.6,7.25-9.46,25.89-3.13,15.12-5,24.38-3.72,37.31a91.34,91.34,0,0,0,8.7,30.48,33.91,33.91,0,0,0,15,17.39,32.56,32.56,0,0,0,18.38,3.85A31.88,31.88,0,0,0,471.59,378c3.89-5.49,5-11.08,6.89-20.95a130.63,130.63,0,0,0,1.94-14,73.39,73.39,0,0,0,11.74,39.74A16.29,16.29,0,0,0,514,389.54a30.72,30.72,0,0,0,3.72-8.39,31.2,31.2,0,0,0,1.06-8.84c-.05-5.22.08-10.44,0-15.66,0-2.58-.08-2.68-.19-7.37-.06-2.74-.16-7-.18-8.94-.08-6,.19-10.81.49-16.06,1.45-25.49,1.45-25.47,1.51-25.94a123.66,123.66,0,0,1,6-25c-.14-.58-.29-1.18-.4-1.8-.23-1.34-.23-2.23-.6-4.2a151.31,151.31,0,0,0-10,38C515,308.25,514.87,310.28,514.63,313.07Z" transform="translate(-286.34 -221.33)"/><path class="cls-4" d="M530.81,288.5c4.27,22.29,1.25,38.93,3.08,64.27a93.68,93.68,0,0,0,2.69,15.76c1.72,6.71,2.59,10.14,5.06,13.24,4.11,5.16,12.22,10,19.67,8.27,4.68-1.1,7.3-4.37,10.69-8.74,4.75-6.11,6.84-11.92,12.46-31.11,1.39-4.76,2.55-8.79,3.4-11.79l11,63.7a156,156,0,0,0-10.73,19.8A152.52,152.52,0,0,0,577,457.94a26.79,26.79,0,0,0,.19,10.38A14.79,14.79,0,0,0,589,481c1.58.73,9.45,4.14,17.86,1.07,8.85-3.23,14.68-12.33,14.06-22.56a234.44,234.44,0,0,0-5.48-71.18l4-7a49.11,49.11,0,0,1-2.55-13l-3.54,5.5-8.46-95.33a95.45,95.45,0,0,0-10.7-5.47c-6.13-2.67-7.33-2.44-8-2.13-3.51,1.64-2.09,10.35-1.42,15.14a205.81,205.81,0,0,1,1.64,37.44A157.08,157.08,0,0,1,575.69,358c-3.65,8.27-10.64,24.09-15,23.26-4.08-.77-4.09-15.68-4.12-41.46,0-21.52,1.22-33-2.13-51.65-1.08-6-2.3-10.83-3.14-13.94a30.7,30.7,0,0,0-11.93-6.58,32.27,32.27,0,0,0-13.76-.91c-.23.51-.44,1-.66,1.52.51,2.5,1.18,4.92,1.87,7.34m73.32,194.39c-.77,4.64-3.82,8.21-7.08,8.64-4.33.57-10.23-4.23-10.09-11.82a114.62,114.62,0,0,1,2.87-19.11,91.72,91.72,0,0,1,3.35-11.41,96.91,96.91,0,0,1,11.26-21.9,121.22,121.22,0,0,1,2,13c.26,2.66.54,6.35.57,14C603.08,462.52,600.52,467.5,600.12,469.94Z" transform="translate(-286.34 -221.33)"/><path class="cls-4" d="M1008.66,284.32a81.94,81.94,0,0,1-18,8.59c-3.61-5.25-15.59-21.4-31.28-21.58a38.7,38.7,0,0,0-6.5.6,27.41,27.41,0,0,0-5.43,1.39,23.15,23.15,0,0,0-9.08,6.39,22.48,22.48,0,0,0-3.07,4.63c1.06-.57,2.09-1.1,3.09-1.59A105.58,105.58,0,0,0,928,332.11a75.87,75.87,0,0,0,3.35,23.33,76.83,76.83,0,0,0,9.31,19.69,34.17,34.17,0,0,0,14.45,11.63,35,35,0,0,0,14,2.75,27.84,27.84,0,0,0,16-5.71c8.5-5.93,11.68-14.41,14.22-21.47,6.73-18.7,3.37-35.49,1.87-42.5a88.83,88.83,0,0,0-7.41-21.14l14.32-6.76A32.69,32.69,0,0,1,1008.66,284.32Zm-40.39-.77a3,3,0,0,1,1.15-2.22c1.92-1.12,5.54,1.93,7.07,3.22a29.67,29.67,0,0,1,7.93,10.78,13.58,13.58,0,0,1-8.94-.7C971,292.54,967.58,287.55,968.27,283.55Zm27.15,58.78c-.31,4.23-1.82,20-11,31a19.33,19.33,0,0,1-6,5c-1.36.71-7.83,3.85-14.28,1.23-5.55-2.26-7.92-7.52-10.38-12.89a39.51,39.51,0,0,1-3.09-10.23,93,93,0,0,1-2.31-19.14c-.35-22.22,7.43-39.69,13-49.63a21.91,21.91,0,0,0,25.08,12.58,83,83,0,0,1,7,19.08A79.34,79.34,0,0,1,995.42,342.33Z" transform="translate(-286.34 -221.33)"/><path class="cls-4" d="M900.82,274.85a150.69,150.69,0,0,1-3.18-26.69,146.59,146.59,0,0,1,.63-18c-7.54-5.08-18.07-11.17-21.6-7.91-1.82,1.68-1,5.11.25,13.3.83,5.57,1.08,9.23,1.08,9.23,1.34,9.81,2,14.72,2.44,17.55,1.4,9.18,5.1,29.8,11.07,56.93a151.27,151.27,0,0,0-11.75,16.27c-7.64,12.21-22.41,35.83-14.54,47.39,1.34,2,4,4.6,10,5.94a35.91,35.91,0,0,0,16.4.13,29.42,29.42,0,0,0,12.83-7.67,47.43,47.43,0,0,0,8.91-16c2.92-9.11,2.14-16.86,1.5-22.7C912.19,318.55,906.78,304.67,900.82,274.85Zm-5.08,79.75a72,72,0,0,1-2.62,15.69,57.47,57.47,0,0,1-4.35,10.17c-4.12,4.5-9.76,6.35-14.13,4.73-5.37-2-6.74-8.52-6.94-9.44-.42-2-.57-4.69,1.72-11.42a63.47,63.47,0,0,1,7-15,183.37,183.37,0,0,1,17-23A113.68,113.68,0,0,1,895.74,354.6Z" transform="translate(-286.34 -221.33)"/><path class="cls-4" d="M927.28,285.83a111.38,111.38,0,0,0-21.12,15.94,22,22,0,0,0,1.24,7.17c1.34-1.55,2.83-3.19,4.51-4.87l.36-.36a87.23,87.23,0,0,1,11.31-9.59,52.9,52.9,0,0,1,14.83-6.79c.59-1.61,1.25-3.28,2-5q.86-2,1.75-3.79A114.23,114.23,0,0,0,927.28,285.83Z" transform="translate(-286.34 -221.33)"/><path class="cls-4" d="M1123.42,272.33c-.44,0-1.14,0-2,0a6.58,6.58,0,0,0-1,0,4.09,4.09,0,0,0-2,1c-11.5,10.1-18,71-18,71-.79,7.36-1.48,13.54-2,18,0,0-.25,2-1,6-1.3,6.93-2.52,10.76-4.77,12.52a7.82,7.82,0,0,1-3.23,1.48,6.48,6.48,0,0,1-2,0,23.94,23.94,0,0,1,1.85,6.78c.09.78.14,1.52.15,2.22a9.37,9.37,0,0,0,5-1c3.38-1.81,4.64-5.59,5.26-7.8,3.85-13.61,6.83-49.86,7.12-53.32a137.77,137.77,0,0,1,4.1-23.59,147.24,147.24,0,0,1,10.52-28.29Z" transform="translate(-286.34 -221.33)"/><path class="cls-4" d="M1089.15,382.45a1.24,1.24,0,0,1-.27,0c-1.38-.2-2.17-3.25-2.43-4.3-2-7.95-5.65-71.85-6-77.83a31.63,31.63,0,0,0-.5-4c-1.65-8.69-7.3-19.42-14.91-22.09-10-3.52-24.45,5-35,21l-1.58-17.9a54,54,0,0,0,11.68-19.49,40.94,40.94,0,0,0,2.32-11.51,39.62,39.62,0,0,0-2.38-15.51c-.51-1-4-7.81-11.27-9.24-7.78-1.53-14.09,4.19-15.56,5.63-7.36,7.21-6.86,18.24-5.79,36.14a164.6,164.6,0,0,0,2,17.48v0a5.54,5.54,0,0,1,0,1.5c-.55,4.16-6.13,6.79-6,7s2.25-1.54,3-1-.07,2.83-1,5l4-2q1.58,13.66,2.74,28c1.76,22.15,2.49,43.27,2.47,63.22a11.56,11.56,0,0,0,10.05,8.34,12.25,12.25,0,0,0,9.56-3.89l-2.4-71.54a51.52,51.52,0,0,1,6.67-16.3c1.22-1.94,9.35-14.9,14.68-13.46,3.55,1,4.51,9.13,5.12,15.14,2.93,28.39,2.27,37.24,4.1,50.45,2,14.45,4.82,33,17.2,38.48a19.89,19.89,0,0,0,10,1.42c-.14-1.41-.26-2.88-.34-4.42S1089.15,383.85,1089.15,382.45Zm-63.72-132.12a48.85,48.85,0,0,1,1-16c1.27-5.26,2.42-5.85,3-6,2.58-.67,6.65,4.1,8,9a16.14,16.14,0,0,1,.14,7.59c-1.85,9.48-6.93,18.4-10.14,23.41C1026.45,261.46,1025.83,255.39,1025.42,250.33Z" transform="translate(-286.34 -221.33)"/><path class="cls-4" d="M1200.18,375.95c-5.49-16.08-3.4-51.4-3.4-51.4a141.21,141.21,0,0,0-5.17-43,8.65,8.65,0,0,0-1.28-4c-4.26-6.66-18.33-5.79-27-2.3-12.23,4.9-17.35,16.33-18.67,19.55l-1.05-17a54.66,54.66,0,0,0-10.94-4.56c-5.21-1.53-7.82-2.3-10.4-1.69a10.94,10.94,0,0,0-2.63,1c.17,1.76.44,3.46.73,5.15l.09-.13c.17,1.23.37,2.64.57,4.21.07.47.13.94.18,1.42.63,5,1.33,11.35,1.89,18.74,2.29,30.28,2,54.54,2,54.54-.22,19.34-1.31,27.89,4.72,32.22,4,2.86,10.57,3.54,14,.66,3.88-3.26,2.77-10.32,2.4-13-1.66-11.88-2.06-32.33-.33-67a34.35,34.35,0,0,1,6.65-17.62c.38-.54,9.68-13.42,15-11.57,9.8,3.44,2.28,56.42,9.13,86,.82,3.54,2.81,12.26,10,18.46a21.47,21.47,0,0,0,12.82,5.72c6.59.41,12.07-2.7,12-3a13.37,13.37,0,0,0-2,0h0l-2-6a5.23,5.23,0,0,1-3,0C1201.72,380.45,1200.59,377.15,1200.18,375.95Z" transform="translate(-286.34 -221.33)"/><path class="cls-4" d="M1348.81,374.56A33.19,33.19,0,0,1,1345,364c-1.68-13.21-3-27.19-3.93-41.89-1.39-22.74-1.47-44-.73-63.56l39.78.36.93-1.72-8-4.92-33,1.2c.77-4.47,2.4-14.86,1.73-22.85a7.86,7.86,0,0,0-1.28-4.1c-1.11-1.57-2.8-2.46-11.17-4.13-6.54-1.3-7.2-1.09-7.73-.8-2.49,1.37-2.93,5-3.37,12.93-.27,4.92-.54,11.35-.6,18.94l-47.94,2,2.26,4.56,45.31-.73a312.78,312.78,0,0,1-16.63,38.45c-4.4,8.56-8.93,16.38-13.41,23.49q2.29,3,4.67,6.07l27-44.51a216.8,216.8,0,0,0,1.69,50.92c4.24,27.57,11.24,36.69,14,40,2.19,2.59,15.48,18.27,27.24,15.53a8.75,8.75,0,0,1-.39-3.85,16.65,16.65,0,0,1-3-1C1353,381.94,1350.31,377.23,1348.81,374.56Z" transform="translate(-286.34 -221.33)"/><path class="cls-4" d="M1561.66,433.9a20.73,20.73,0,0,1-5.58-1.94c-19.13-10-13.83-47.54-13.32-50.85,1.19-8.13,4.75-34.19,3.62-59.41-.77-17.19-3.44-27.79-5-33.22-1.13-3.92-2.27-7.12-3.08-9.29a46,46,0,0,0-13.36-5,47,47,0,0,0-11.11-.92,65.44,65.44,0,0,0-16.93,9.24,62.29,62.29,0,0,0-13.46,14,51.46,51.46,0,0,0,3.1-13.76,50.59,50.59,0,0,0,.1-6.85c-3.59-2.83-9.66-6.71-17-7.19-3.48-.23-5,.45-6,1.26-2.1,1.79-1.53,4.52-1.77,8-.59,8.61-5.79,17.09-12.36,20.79a18.56,18.56,0,0,1-4.06,1.68c-.16-2.51-1.32-16.58-12.78-23.93-13.95-9-33.18-1.56-43.25,7a39.4,39.4,0,0,0-11.24,16.2,75.84,75.84,0,0,0-8.07,30.29,74.18,74.18,0,0,0,1.86,20.5,130.64,130.64,0,0,1-.62,17.13c-1,10.22-2.62,13.58-5.47,15.63a11.66,11.66,0,0,1-4.54,1.92l-.39-.16q.47,2,.9,4.12a12.43,12.43,0,0,0,2-.59c7.37-3,11.7-12.79,11.08-24.19a33.81,33.81,0,0,0,5,11.08c1.85,2.65,9,12.9,21.26,14.18,10.58,1.1,18.85-5.32,22.26-8,13.88-10.83,16.93-27.49,20.29-45.83a158.2,158.2,0,0,0,2.59-27,52.29,52.29,0,0,0,8.8-5.88,50.57,50.57,0,0,0,7.32-7.45c2.61,40.51,5.51,70.33,7.16,79.73.52,3,1.59,8.07,5.78,11.52a17,17,0,0,0,8,3.49,9.44,9.44,0,0,0,4.32-.77,9,9,0,0,0,4.49-4.43,255.68,255.68,0,0,1-7.53-74.25,66.48,66.48,0,0,1,13.57-20.36c5-5.13,10.41-10.31,15-9.2,2.22.54,7.17,3.26,10,30.61,1.43,13.72,6,47.05.33,75.76a46.9,46.9,0,0,0,6.49,34.79,33.82,33.82,0,0,0,5.13,6.71,36.54,36.54,0,0,0,3,2.71C1542,434.79,1550.94,435.64,1561.66,433.9ZM1432.51,342c-1.35,5.11-2.9,9.86-4.53,14.24a41.46,41.46,0,0,1-12.89,18.29c-4.56,3.7-8.44,6.57-12.17,6-13.41-2.23-27.52-50.86-6.66-79.06a50,50,0,0,1,16.35-14,30.86,30.86,0,0,0,24.79,21.87A150.24,150.24,0,0,1,1432.51,342Zm4-39.8c-3.08,1.85-11.41-3.52-14.68-10.43-.54-1.13-3.43-7.25-.44-10,1.48-1.38,3.79-1.36,5-1.24a20.9,20.9,0,0,1,9.6,9.62C1437.82,294,1439.13,300.66,1436.53,302.22Z" transform="translate(-286.34 -221.33)"/><path class="cls-4" d="M1283.42,325.33,1250.37,273l-24.14-1.69c.39,1.89.93,4.7,1.36,8.12,2.29,18.19-.87,32.47-4.2,46.05-7.7,31.4-12.67,51.65-17,56.08q.5,3.84,1,7.74c.66-.14,1.33-.29,2-.5,9.87-3,20.15-45.15,26.05-102.37a117.73,117.73,0,0,1,15.5,16.71,121.33,121.33,0,0,1,18.75,35.91,63.87,63.87,0,0,0-11.79,14.1c-4.61,7.49-9.19,14.91-7.51,23.64,1.46,7.6,7,12.59,10.41,15.09a43.71,43.71,0,0,0,18.34.83,44.25,44.25,0,0,0,16.75-6.54,23.15,23.15,0,0,0,6.79-11c.5-1.95,1.47-7-3.51-19.94a109.61,109.61,0,0,0-10.73-20.89l7-13-5-5q-2,2.39-4,5Q1284.86,323.36,1283.42,325.33Zm-.66,55.7a17,17,0,0,1-10,7.14c-1.56.36-8.08,1.87-12.59-2.69-4-4-3.42-9.72-3.33-10.55A62.28,62.28,0,0,1,1265,357.7a60.9,60.9,0,0,1,8-9.57,35.1,35.1,0,0,1,8.19,12.42A36.57,36.57,0,0,1,1282.76,381Z" transform="translate(-286.34 -221.33)"/></g><g class="cls-3"><path d="M390.05,310.29c-1-11.68-1.62-22.28-2.85-43.46-.61-10.41-1.06-19.08-1.36-25.16l73.06-14.19-8.53-6.14c-24.59,5.48-50.66,10.44-78.12,14.56-30.09,4.52-58.79,7.59-85.91,9.55a9.64,9.64,0,0,0,1.76,4.83,7.08,7.08,0,0,0,4.14,2.79l73.4-8.18q1,31.82,3.21,66.06t5.62,66a20,20,0,0,0,4.46,7.93,15.39,15.39,0,0,0,7.3,4.45c2,1,4.5,1.75,6.52.46,4.67-3,3.48-15.07,1.63-34.09C391.9,330.17,390.66,317.39,390.05,310.29Z" transform="translate(-286.34 -221.33)"/><path d="M813.89,375.91a6.37,6.37,0,0,0-4.65-1.7,9.86,9.86,0,0,0-5.82,2.12c-2.84,1.92-3,3.27-5,5-2.54,2.19-7.05,4.09-10.66,3-5.22-1.62-6.9-9-7.94-13.61a36.36,36.36,0,0,1-.47-13.49,97.06,97.06,0,0,1,3.34-16.45c4.14-14,13.82-34.9,21-53.15a9.57,9.57,0,0,0,.62-6.28c-2.23-7.56-17-12.31-24-8a55.66,55.66,0,0,1-5.72,3.71,40,40,0,0,1-6.46,2.76A15.59,15.59,0,0,0,766.52,268a15.12,15.12,0,0,0-6.85-5.91,8.62,8.62,0,0,0-11.91,8.4,21,21,0,0,0,14.71,14.94,41.47,41.47,0,0,1-23.36,15.82A37.07,37.07,0,0,0,733,284a36.14,36.14,0,0,0-6.88-7.6c-14.35-7.31-24.12-5.21-27.79-4.11-25.31,7.59-29.47,48.62-30.17,55.47a95.43,95.43,0,0,0,3.22,35.6,32.37,32.37,0,0,1-2.35,15.74,30.06,30.06,0,0,1-1.65,3.26c-.26,1.25-.58,2.59-1,4-.32,1.06-.65,2.06-1,3a14.94,14.94,0,0,0,9-7,14.76,14.76,0,0,0,1.52-9.91,30,30,0,0,0,38.79,13.09c21.88-9.88,23.91-42.79,24.06-46a96.75,96.75,0,0,0,.67-32.07,41.18,41.18,0,0,0,27.13-20.95A35.6,35.6,0,0,0,775,283c5.07-2.95,7.14-5.87,7.86-5.44s-.45,5.1-9.5,23.06a148.25,148.25,0,0,0-12.93,48.19,46.5,46.5,0,0,0,1.24,16.37A47.63,47.63,0,0,0,775,387.66a22,22,0,0,0,7.07,4.46,23,23,0,0,0,14.71.48,72.41,72.41,0,0,0,7.42-3.26c9-4.22,10.18-5.6,10.73-7.17A6.4,6.4,0,0,0,813.89,375.91Zm-99.2-93.55c2.41-2.26,6.51-1.26,7.21-1.09,9.68,2.36,12.45,20.31,12.66,21.72A22.57,22.57,0,0,1,723,300.78c-1.94-1-8-4-9.57-10.21C713.17,289.72,712,284.89,714.69,282.36Zm21.05,47.86a141.41,141.41,0,0,1-2.12,17.39c-1.78,7.45-6,19.33-16.65,28-4,3.25-8.8,7.17-14.12,6.26-9.69-1.65-14-18.14-15.34-23.37-7.58-29.12,9.76-58.65,18.8-71.91a20.45,20.45,0,0,0,2.56,9.12c4.36,7.68,12.9,10.17,17.55,11.52a40.48,40.48,0,0,0,8.94,1.54A141.36,141.36,0,0,1,735.75,330.22Zm28.36-48.45a10.72,10.72,0,0,1-10.55-10.91,4.91,4.91,0,0,1,2.81-4.63,5,5,0,0,1,4.1.17,11.87,11.87,0,0,1,3.69,4.28C766.72,275.78,764.47,281,764.1,281.77Z" transform="translate(-286.34 -221.33)"/><path d="M662.16,383.14c-11.56-.55-17.9-34.13-18.46-40.85a82.07,82.07,0,0,1,0-14c6.81-21,13.26-37.29,18.06-48.65,5.05-12,9.74-21.9,8.14-35-.49-4-1.9-14.36-9.46-19.89-1-.75-6.52-4.77-12.58-2.94-3.88,1.17-6.39,4.26-8.8,8.08C631.66,241.65,629.21,254,628,261a261.63,261.63,0,0,0-3.63,30.7,414.92,414.92,0,0,0,1.88,59.9l-9.36,17c.43,4.79,1,9.65,1.78,14.46l10.87-21.26c1,3.51,5,15.79,16.51,23.2a33.85,33.85,0,0,0,15.51,5.26,17.53,17.53,0,0,0,7-2.38,34.86,34.86,0,0,1-.29-4.35c0-1.15,0-2.23.14-3.23C665.72,382.8,663.59,383.21,662.16,383.14ZM646.22,271.21c1.13-9.16,5.18-41.91,10.69-41.92,2.48,0,4.34,6.65,5,8.89,3.15,11.32-.08,21.64-2,27.5-5,15.46-10.29,31.11-16.15,47.56A329.71,329.71,0,0,1,646.22,271.21Z" transform="translate(-286.34 -221.33)"/><path d="M514.63,313.07c-2,22.66-.25,36.37-3.13,58.37-.74,5.67-1.36,8.56-2.27,8.61-1.88.1-4.37-11.86-5.42-21.72-1.77-16.62,1.1-22.43-.15-38a112.21,112.21,0,0,0-4.23-22.72,53.29,53.29,0,0,0-12.36-4.2c-5.07-1.05-7.6-1.58-9.17-.33-3.54,2.81.33,11.23,1.57,22a67.68,67.68,0,0,1-2.68,27.25c-.75,8.46-3.37,20.52-12,30.59-3.37,3.92-7,8.17-11.44,7.79-8.89-.77-13.59-19.76-14.88-25-3.85-15.6-1.92-29.05-.19-40.43a160.67,160.67,0,0,1,6.09-25.59A35.12,35.12,0,0,1,450,279.62c3.09-3.87,7.12-8.92,12.39-9s7.54,4.7,11.39,3.48c2.49-.79,3.9-3.57,4.72-6A56,56,0,0,0,447,261.79a39.32,39.32,0,0,0-17.4,11.81c-1.7,2.06-5.6,7.25-9.46,25.89-3.13,15.12-5,24.38-3.72,37.31a91.34,91.34,0,0,0,8.7,30.48,33.91,33.91,0,0,0,15,17.39,32.56,32.56,0,0,0,18.38,3.85A31.88,31.88,0,0,0,471.59,378c3.89-5.49,5-11.08,6.89-20.95a130.63,130.63,0,0,0,1.94-14,73.39,73.39,0,0,0,11.74,39.74A16.29,16.29,0,0,0,514,389.54a30.72,30.72,0,0,0,3.72-8.39,31.2,31.2,0,0,0,1.06-8.84c-.05-5.22.08-10.44,0-15.66,0-2.58-.08-2.68-.19-7.37-.06-2.74-.16-7-.18-8.94-.08-6,.19-10.81.49-16.06,1.45-25.49,1.45-25.47,1.51-25.94a123.66,123.66,0,0,1,6-25c-.14-.58-.29-1.18-.4-1.8-.23-1.34-.23-2.23-.6-4.2a151.31,151.31,0,0,0-10,38C515,308.25,514.87,310.28,514.63,313.07Z" transform="translate(-286.34 -221.33)"/><path d="M530.81,288.5c4.27,22.29,1.25,38.93,3.08,64.27a93.68,93.68,0,0,0,2.69,15.76c1.72,6.71,2.59,10.14,5.06,13.24,4.11,5.16,12.22,10,19.67,8.27,4.68-1.1,7.3-4.37,10.69-8.74,4.75-6.11,6.84-11.92,12.46-31.11,1.39-4.76,2.55-8.79,3.4-11.79l11,63.7a156,156,0,0,0-10.73,19.8A152.52,152.52,0,0,0,577,457.94a26.79,26.79,0,0,0,.19,10.38A14.79,14.79,0,0,0,589,481c1.58.73,9.45,4.14,17.86,1.07,8.85-3.23,14.68-12.33,14.06-22.56a234.44,234.44,0,0,0-5.48-71.18l4-7a49.11,49.11,0,0,1-2.55-13l-3.54,5.5-8.46-95.33a95.45,95.45,0,0,0-10.7-5.47c-6.13-2.67-7.33-2.44-8-2.13-3.51,1.64-2.09,10.35-1.42,15.14a205.81,205.81,0,0,1,1.64,37.44A157.08,157.08,0,0,1,575.69,358c-3.65,8.27-10.64,24.09-15,23.26-4.08-.77-4.09-15.68-4.12-41.46,0-21.52,1.22-33-2.13-51.65-1.08-6-2.3-10.83-3.14-13.94a30.7,30.7,0,0,0-11.93-6.58,32.27,32.27,0,0,0-13.76-.91c-.23.51-.44,1-.66,1.52.51,2.5,1.18,4.92,1.87,7.34m73.32,194.39c-.77,4.64-3.82,8.21-7.08,8.64-4.33.57-10.23-4.23-10.09-11.82a114.62,114.62,0,0,1,2.87-19.11,91.72,91.72,0,0,1,3.35-11.41,96.91,96.91,0,0,1,11.26-21.9,121.22,121.22,0,0,1,2,13c.26,2.66.54,6.35.57,14C603.08,462.52,600.52,467.5,600.12,469.94Z" transform="translate(-286.34 -221.33)"/><path d="M1008.66,284.32a81.94,81.94,0,0,1-18,8.59c-3.61-5.25-15.59-21.4-31.28-21.58a38.7,38.7,0,0,0-6.5.6,27.41,27.41,0,0,0-5.43,1.39,23.15,23.15,0,0,0-9.08,6.39,22.48,22.48,0,0,0-3.07,4.63c1.06-.57,2.09-1.1,3.09-1.59A105.58,105.58,0,0,0,928,332.11a75.87,75.87,0,0,0,3.35,23.33,76.83,76.83,0,0,0,9.31,19.69,34.17,34.17,0,0,0,14.45,11.63,35,35,0,0,0,14,2.75,27.84,27.84,0,0,0,16-5.71c8.5-5.93,11.68-14.41,14.22-21.47,6.73-18.7,3.37-35.49,1.87-42.5a88.83,88.83,0,0,0-7.41-21.14l14.32-6.76A32.69,32.69,0,0,1,1008.66,284.32Zm-40.39-.77a3,3,0,0,1,1.15-2.22c1.92-1.12,5.54,1.93,7.07,3.22a29.67,29.67,0,0,1,7.93,10.78,13.58,13.58,0,0,1-8.94-.7C971,292.54,967.58,287.55,968.27,283.55Zm27.15,58.78c-.31,4.23-1.82,20-11,31a19.33,19.33,0,0,1-6,5c-1.36.71-7.83,3.85-14.28,1.23-5.55-2.26-7.92-7.52-10.38-12.89a39.51,39.51,0,0,1-3.09-10.23,93,93,0,0,1-2.31-19.14c-.35-22.22,7.43-39.69,13-49.63a21.91,21.91,0,0,0,25.08,12.58,83,83,0,0,1,7,19.08A79.34,79.34,0,0,1,995.42,342.33Z" transform="translate(-286.34 -221.33)"/><path d="M900.82,274.85a150.69,150.69,0,0,1-3.18-26.69,146.59,146.59,0,0,1,.63-18c-7.54-5.08-18.07-11.17-21.6-7.91-1.82,1.68-1,5.11.25,13.3.83,5.57,1.08,9.23,1.08,9.23,1.34,9.81,2,14.72,2.44,17.55,1.4,9.18,5.1,29.8,11.07,56.93a151.27,151.27,0,0,0-11.75,16.27c-7.64,12.21-22.41,35.83-14.54,47.39,1.34,2,4,4.6,10,5.94a35.91,35.91,0,0,0,16.4.13,29.42,29.42,0,0,0,12.83-7.67,47.43,47.43,0,0,0,8.91-16c2.92-9.11,2.14-16.86,1.5-22.7C912.19,318.55,906.78,304.67,900.82,274.85Zm-5.08,79.75a72,72,0,0,1-2.62,15.69,57.47,57.47,0,0,1-4.35,10.17c-4.12,4.5-9.76,6.35-14.13,4.73-5.37-2-6.74-8.52-6.94-9.44-.42-2-.57-4.69,1.72-11.42a63.47,63.47,0,0,1,7-15,183.37,183.37,0,0,1,17-23A113.68,113.68,0,0,1,895.74,354.6Z" transform="translate(-286.34 -221.33)"/><path d="M927.28,285.83a111.38,111.38,0,0,0-21.12,15.94,22,22,0,0,0,1.24,7.17c1.34-1.55,2.83-3.19,4.51-4.87l.36-.36a87.23,87.23,0,0,1,11.31-9.59,52.9,52.9,0,0,1,14.83-6.79c.59-1.61,1.25-3.28,2-5q.86-2,1.75-3.79A114.23,114.23,0,0,0,927.28,285.83Z" transform="translate(-286.34 -221.33)"/><path d="M1123.42,272.33c-.44,0-1.14,0-2,0a6.58,6.58,0,0,0-1,0,4.09,4.09,0,0,0-2,1c-11.5,10.1-18,71-18,71-.79,7.36-1.48,13.54-2,18,0,0-.25,2-1,6-1.3,6.93-2.52,10.76-4.77,12.52a7.82,7.82,0,0,1-3.23,1.48,6.48,6.48,0,0,1-2,0,23.94,23.94,0,0,1,1.85,6.78c.09.78.14,1.52.15,2.22a9.37,9.37,0,0,0,5-1c3.38-1.81,4.64-5.59,5.26-7.8,3.85-13.61,6.83-49.86,7.12-53.32a137.77,137.77,0,0,1,4.1-23.59,147.24,147.24,0,0,1,10.52-28.29Z" transform="translate(-286.34 -221.33)"/><path d="M1089.15,382.45a1.24,1.24,0,0,1-.27,0c-1.38-.2-2.17-3.25-2.43-4.3-2-7.95-5.65-71.85-6-77.83a31.63,31.63,0,0,0-.5-4c-1.65-8.69-7.3-19.42-14.91-22.09-10-3.52-24.45,5-35,21l-1.58-17.9a54,54,0,0,0,11.68-19.49,40.94,40.94,0,0,0,2.32-11.51,39.62,39.62,0,0,0-2.38-15.51c-.51-1-4-7.81-11.27-9.24-7.78-1.53-14.09,4.19-15.56,5.63-7.36,7.21-6.86,18.24-5.79,36.14a164.6,164.6,0,0,0,2,17.48v0a5.54,5.54,0,0,1,0,1.5c-.55,4.16-6.13,6.79-6,7s2.25-1.54,3-1-.07,2.83-1,5l4-2q1.58,13.66,2.74,28c1.76,22.15,2.49,43.27,2.47,63.22a11.56,11.56,0,0,0,10.05,8.34,12.25,12.25,0,0,0,9.56-3.89l-2.4-71.54a51.52,51.52,0,0,1,6.67-16.3c1.22-1.94,9.35-14.9,14.68-13.46,3.55,1,4.51,9.13,5.12,15.14,2.93,28.39,2.27,37.24,4.1,50.45,2,14.45,4.82,33,17.2,38.48a19.89,19.89,0,0,0,10,1.42c-.14-1.41-.26-2.88-.34-4.42S1089.15,383.85,1089.15,382.45Zm-63.72-132.12a48.85,48.85,0,0,1,1-16c1.27-5.26,2.42-5.85,3-6,2.58-.67,6.65,4.1,8,9a16.14,16.14,0,0,1,.14,7.59c-1.85,9.48-6.93,18.4-10.14,23.41C1026.45,261.46,1025.83,255.39,1025.42,250.33Z" transform="translate(-286.34 -221.33)"/><path d="M1200.18,375.95c-5.49-16.08-3.4-51.4-3.4-51.4a141.21,141.21,0,0,0-5.17-43,8.65,8.65,0,0,0-1.28-4c-4.26-6.66-18.33-5.79-27-2.3-12.23,4.9-17.35,16.33-18.67,19.55l-1.05-17a54.66,54.66,0,0,0-10.94-4.56c-5.21-1.53-7.82-2.3-10.4-1.69a10.94,10.94,0,0,0-2.63,1c.17,1.76.44,3.46.73,5.15l.09-.13c.17,1.23.37,2.64.57,4.21.07.47.13.94.18,1.42.63,5,1.33,11.35,1.89,18.74,2.29,30.28,2,54.54,2,54.54-.22,19.34-1.31,27.89,4.72,32.22,4,2.86,10.57,3.54,14,.66,3.88-3.26,2.77-10.32,2.4-13-1.66-11.88-2.06-32.33-.33-67a34.35,34.35,0,0,1,6.65-17.62c.38-.54,9.68-13.42,15-11.57,9.8,3.44,2.28,56.42,9.13,86,.82,3.54,2.81,12.26,10,18.46a21.47,21.47,0,0,0,12.82,5.72c6.59.41,12.07-2.7,12-3a13.37,13.37,0,0,0-2,0h0l-2-6a5.23,5.23,0,0,1-3,0C1201.72,380.45,1200.59,377.15,1200.18,375.95Z" transform="translate(-286.34 -221.33)"/><path d="M1348.81,374.56A33.19,33.19,0,0,1,1345,364c-1.68-13.21-3-27.19-3.93-41.89-1.39-22.74-1.47-44-.73-63.56l39.78.36.93-1.72-8-4.92-33,1.2c.77-4.47,2.4-14.86,1.73-22.85a7.86,7.86,0,0,0-1.28-4.1c-1.11-1.57-2.8-2.46-11.17-4.13-6.54-1.3-7.2-1.09-7.73-.8-2.49,1.37-2.93,5-3.37,12.93-.27,4.92-.54,11.35-.6,18.94l-47.94,2,2.26,4.56,45.31-.73a312.78,312.78,0,0,1-16.63,38.45c-4.4,8.56-8.93,16.38-13.41,23.49q2.29,3,4.67,6.07l27-44.51a216.8,216.8,0,0,0,1.69,50.92c4.24,27.57,11.24,36.69,14,40,2.19,2.59,15.48,18.27,27.24,15.53a8.75,8.75,0,0,1-.39-3.85,16.65,16.65,0,0,1-3-1C1353,381.94,1350.31,377.23,1348.81,374.56Z" transform="translate(-286.34 -221.33)"/><path d="M1561.66,433.9a20.73,20.73,0,0,1-5.58-1.94c-19.13-10-13.83-47.54-13.32-50.85,1.19-8.13,4.75-34.19,3.62-59.41-.77-17.19-3.44-27.79-5-33.22-1.13-3.92-2.27-7.12-3.08-9.29a46,46,0,0,0-13.36-5,47,47,0,0,0-11.11-.92,65.44,65.44,0,0,0-16.93,9.24,62.29,62.29,0,0,0-13.46,14,51.46,51.46,0,0,0,3.1-13.76,50.59,50.59,0,0,0,.1-6.85c-3.59-2.83-9.66-6.71-17-7.19-3.48-.23-5,.45-6,1.26-2.1,1.79-1.53,4.52-1.77,8-.59,8.61-5.79,17.09-12.36,20.79a18.56,18.56,0,0,1-4.06,1.68c-.16-2.51-1.32-16.58-12.78-23.93-13.95-9-33.18-1.56-43.25,7a39.4,39.4,0,0,0-11.24,16.2,75.84,75.84,0,0,0-8.07,30.29,74.18,74.18,0,0,0,1.86,20.5,130.64,130.64,0,0,1-.62,17.13c-1,10.22-2.62,13.58-5.47,15.63a11.66,11.66,0,0,1-4.54,1.92l-.39-.16q.47,2,.9,4.12a12.43,12.43,0,0,0,2-.59c7.37-3,11.7-12.79,11.08-24.19a33.81,33.81,0,0,0,5,11.08c1.85,2.65,9,12.9,21.26,14.18,10.58,1.1,18.85-5.32,22.26-8,13.88-10.83,16.93-27.49,20.29-45.83a158.2,158.2,0,0,0,2.59-27,52.29,52.29,0,0,0,8.8-5.88,50.57,50.57,0,0,0,7.32-7.45c2.61,40.51,5.51,70.33,7.16,79.73.52,3,1.59,8.07,5.78,11.52a17,17,0,0,0,8,3.49,9.44,9.44,0,0,0,4.32-.77,9,9,0,0,0,4.49-4.43,255.68,255.68,0,0,1-7.53-74.25,66.48,66.48,0,0,1,13.57-20.36c5-5.13,10.41-10.31,15-9.2,2.22.54,7.17,3.26,10,30.61,1.43,13.72,6,47.05.33,75.76a46.9,46.9,0,0,0,6.49,34.79,33.82,33.82,0,0,0,5.13,6.71,36.54,36.54,0,0,0,3,2.71C1542,434.79,1550.94,435.64,1561.66,433.9ZM1432.51,342c-1.35,5.11-2.9,9.86-4.53,14.24a41.46,41.46,0,0,1-12.89,18.29c-4.56,3.7-8.44,6.57-12.17,6-13.41-2.23-27.52-50.86-6.66-79.06a50,50,0,0,1,16.35-14,30.86,30.86,0,0,0,24.79,21.87A150.24,150.24,0,0,1,1432.51,342Zm4-39.8c-3.08,1.85-11.41-3.52-14.68-10.43-.54-1.13-3.43-7.25-.44-10,1.48-1.38,3.79-1.36,5-1.24a20.9,20.9,0,0,1,9.6,9.62C1437.82,294,1439.13,300.66,1436.53,302.22Z" transform="translate(-286.34 -221.33)"/><path d="M1283.42,325.33,1250.37,273l-24.14-1.69c.39,1.89.93,4.7,1.36,8.12,2.29,18.19-.87,32.47-4.2,46.05-7.7,31.4-12.67,51.65-17,56.08q.5,3.84,1,7.74c.66-.14,1.33-.29,2-.5,9.87-3,20.15-45.15,26.05-102.37a117.73,117.73,0,0,1,15.5,16.71,121.33,121.33,0,0,1,18.75,35.91,63.87,63.87,0,0,0-11.79,14.1c-4.61,7.49-9.19,14.91-7.51,23.64,1.46,7.6,7,12.59,10.41,15.09a43.71,43.71,0,0,0,18.34.83,44.25,44.25,0,0,0,16.75-6.54,23.15,23.15,0,0,0,6.79-11c.5-1.95,1.47-7-3.51-19.94a109.61,109.61,0,0,0-10.73-20.89l7-13-5-5q-2,2.39-4,5Q1284.86,323.36,1283.42,325.33Zm-.66,55.7a17,17,0,0,1-10,7.14c-1.56.36-8.08,1.87-12.59-2.69-4-4-3.42-9.72-3.33-10.55A62.28,62.28,0,0,1,1265,357.7a60.9,60.9,0,0,1,8-9.57,35.1,35.1,0,0,1,8.19,12.42A36.57,36.57,0,0,1,1282.76,381Z" transform="translate(-286.34 -221.33)"/></g><path class="cls-4" d="M390.05,310.29c-1-11.68-1.62-22.28-2.85-43.46-.61-10.41-1.06-19.08-1.36-25.16l73.06-14.19-8.53-6.14c-24.59,5.48-50.66,10.44-78.12,14.56-30.09,4.52-58.79,7.59-85.91,9.55a9.64,9.64,0,0,0,1.76,4.83,7.08,7.08,0,0,0,4.14,2.79l73.4-8.18q1,31.82,3.21,66.06t5.62,66a20,20,0,0,0,4.46,7.93,15.39,15.39,0,0,0,7.3,4.45c2,1,4.5,1.75,6.52.46,4.67-3,3.48-15.07,1.63-34.09C391.9,330.17,390.66,317.39,390.05,310.29Z" transform="translate(-286.34 -221.33)"/><path class="cls-4" d="M813.89,375.91a6.37,6.37,0,0,0-4.65-1.7,9.86,9.86,0,0,0-5.82,2.12c-2.84,1.92-3,3.27-5,5-2.54,2.19-7.05,4.09-10.66,3-5.22-1.62-6.9-9-7.94-13.61a36.36,36.36,0,0,1-.47-13.49,97.06,97.06,0,0,1,3.34-16.45c4.14-14,13.82-34.9,21-53.15a9.57,9.57,0,0,0,.62-6.28c-2.23-7.56-17-12.31-24-8a55.66,55.66,0,0,1-5.72,3.71,40,40,0,0,1-6.46,2.76A15.59,15.59,0,0,0,766.52,268a15.12,15.12,0,0,0-6.85-5.91,8.62,8.62,0,0,0-11.91,8.4,21,21,0,0,0,14.71,14.94,41.47,41.47,0,0,1-23.36,15.82A37.07,37.07,0,0,0,733,284a36.14,36.14,0,0,0-6.88-7.6c-14.35-7.31-24.12-5.21-27.79-4.11-25.31,7.59-29.47,48.62-30.17,55.47a95.43,95.43,0,0,0,3.22,35.6,32.37,32.37,0,0,1-2.35,15.74,30.06,30.06,0,0,1-1.65,3.26c-.26,1.25-.58,2.59-1,4-.32,1.06-.65,2.06-1,3a14.94,14.94,0,0,0,9-7,14.76,14.76,0,0,0,1.52-9.91,30,30,0,0,0,38.79,13.09c21.88-9.88,23.91-42.79,24.06-46a96.75,96.75,0,0,0,.67-32.07,41.18,41.18,0,0,0,27.13-20.95A35.6,35.6,0,0,0,775,283c5.07-2.95,7.14-5.87,7.86-5.44s-.45,5.1-9.5,23.06a148.25,148.25,0,0,0-12.93,48.19,46.5,46.5,0,0,0,1.24,16.37A47.63,47.63,0,0,0,775,387.66a22,22,0,0,0,7.07,4.46,23,23,0,0,0,14.71.48,72.41,72.41,0,0,0,7.42-3.26c9-4.22,10.18-5.6,10.73-7.17A6.4,6.4,0,0,0,813.89,375.91Zm-99.2-93.55c2.41-2.26,6.51-1.26,7.21-1.09,9.68,2.36,12.45,20.31,12.66,21.72A22.57,22.57,0,0,1,723,300.78c-1.94-1-8-4-9.57-10.21C713.17,289.72,712,284.89,714.69,282.36Zm21.05,47.86a141.41,141.41,0,0,1-2.12,17.39c-1.78,7.45-6,19.33-16.65,28-4,3.25-8.8,7.17-14.12,6.26-9.69-1.65-14-18.14-15.34-23.37-7.58-29.12,9.76-58.65,18.8-71.91a20.45,20.45,0,0,0,2.56,9.12c4.36,7.68,12.9,10.17,17.55,11.52a40.48,40.48,0,0,0,8.94,1.54A141.36,141.36,0,0,1,735.75,330.22Zm28.36-48.45a10.72,10.72,0,0,1-10.55-10.91,4.91,4.91,0,0,1,2.81-4.63,5,5,0,0,1,4.1.17,11.87,11.87,0,0,1,3.69,4.28C766.72,275.78,764.47,281,764.1,281.77Z" transform="translate(-286.34 -221.33)"/><path class="cls-4" d="M662.16,383.14c-11.56-.55-17.9-34.13-18.46-40.85a82.07,82.07,0,0,1,0-14c6.81-21,13.26-37.29,18.06-48.65,5.05-12,9.74-21.9,8.14-35-.49-4-1.9-14.36-9.46-19.89-1-.75-6.52-4.77-12.58-2.94-3.88,1.17-6.39,4.26-8.8,8.08C631.66,241.65,629.21,254,628,261a261.63,261.63,0,0,0-3.63,30.7,414.92,414.92,0,0,0,1.88,59.9l-9.36,17c.43,4.79,1,9.65,1.78,14.46l10.87-21.26c1,3.51,5,15.79,16.51,23.2a33.85,33.85,0,0,0,15.51,5.26,17.53,17.53,0,0,0,7-2.38,34.86,34.86,0,0,1-.29-4.35c0-1.15,0-2.23.14-3.23C665.72,382.8,663.59,383.21,662.16,383.14ZM646.22,271.21c1.13-9.16,5.18-41.91,10.69-41.92,2.48,0,4.34,6.65,5,8.89,3.15,11.32-.08,21.64-2,27.5-5,15.46-10.29,31.11-16.15,47.56A329.71,329.71,0,0,1,646.22,271.21Z" transform="translate(-286.34 -221.33)"/><path class="cls-4" d="M514.63,313.07c-2,22.66-.25,36.37-3.13,58.37-.74,5.67-1.36,8.56-2.27,8.61-1.88.1-4.37-11.86-5.42-21.72-1.77-16.62,1.1-22.43-.15-38a112.21,112.21,0,0,0-4.23-22.72,53.29,53.29,0,0,0-12.36-4.2c-5.07-1.05-7.6-1.58-9.17-.33-3.54,2.81.33,11.23,1.57,22a67.68,67.68,0,0,1-2.68,27.25c-.75,8.46-3.37,20.52-12,30.59-3.37,3.92-7,8.17-11.44,7.79-8.89-.77-13.59-19.76-14.88-25-3.85-15.6-1.92-29.05-.19-40.43a160.67,160.67,0,0,1,6.09-25.59A35.12,35.12,0,0,1,450,279.62c3.09-3.87,7.12-8.92,12.39-9s7.54,4.7,11.39,3.48c2.49-.79,3.9-3.57,4.72-6A56,56,0,0,0,447,261.79a39.32,39.32,0,0,0-17.4,11.81c-1.7,2.06-5.6,7.25-9.46,25.89-3.13,15.12-5,24.38-3.72,37.31a91.34,91.34,0,0,0,8.7,30.48,33.91,33.91,0,0,0,15,17.39,32.56,32.56,0,0,0,18.38,3.85A31.88,31.88,0,0,0,471.59,378c3.89-5.49,5-11.08,6.89-20.95a130.63,130.63,0,0,0,1.94-14,73.39,73.39,0,0,0,11.74,39.74A16.29,16.29,0,0,0,514,389.54a30.72,30.72,0,0,0,3.72-8.39,31.2,31.2,0,0,0,1.06-8.84c-.05-5.22.08-10.44,0-15.66,0-2.58-.08-2.68-.19-7.37-.06-2.74-.16-7-.18-8.94-.08-6,.19-10.81.49-16.06,1.45-25.49,1.45-25.47,1.51-25.94a123.66,123.66,0,0,1,6-25c-.14-.58-.29-1.18-.4-1.8-.23-1.34-.23-2.23-.6-4.2a151.31,151.31,0,0,0-10,38C515,308.25,514.87,310.28,514.63,313.07Z" transform="translate(-286.34 -221.33)"/><path class="cls-4" d="M530.81,288.5c4.27,22.29,1.25,38.93,3.08,64.27a93.68,93.68,0,0,0,2.69,15.76c1.72,6.71,2.59,10.14,5.06,13.24,4.11,5.16,12.22,10,19.67,8.27,4.68-1.1,7.3-4.37,10.69-8.74,4.75-6.11,6.84-11.92,12.46-31.11,1.39-4.76,2.55-8.79,3.4-11.79l11,63.7a156,156,0,0,0-10.73,19.8A152.52,152.52,0,0,0,577,457.94a26.79,26.79,0,0,0,.19,10.38A14.79,14.79,0,0,0,589,481c1.58.73,9.45,4.14,17.86,1.07,8.85-3.23,14.68-12.33,14.06-22.56a234.44,234.44,0,0,0-5.48-71.18l4-7a49.11,49.11,0,0,1-2.55-13l-3.54,5.5-8.46-95.33a95.45,95.45,0,0,0-10.7-5.47c-6.13-2.67-7.33-2.44-8-2.13-3.51,1.64-2.09,10.35-1.42,15.14a205.81,205.81,0,0,1,1.64,37.44A157.08,157.08,0,0,1,575.69,358c-3.65,8.27-10.64,24.09-15,23.26-4.08-.77-4.09-15.68-4.12-41.46,0-21.52,1.22-33-2.13-51.65-1.08-6-2.3-10.83-3.14-13.94a30.7,30.7,0,0,0-11.93-6.58,32.27,32.27,0,0,0-13.76-.91c-.23.51-.44,1-.66,1.52.51,2.5,1.18,4.92,1.87,7.34m73.32,194.39c-.77,4.64-3.82,8.21-7.08,8.64-4.33.57-10.23-4.23-10.09-11.82a114.62,114.62,0,0,1,2.87-19.11,91.72,91.72,0,0,1,3.35-11.41,96.91,96.91,0,0,1,11.26-21.9,121.22,121.22,0,0,1,2,13c.26,2.66.54,6.35.57,14C603.08,462.52,600.52,467.5,600.12,469.94Z" transform="translate(-286.34 -221.33)"/><path class="cls-4" d="M1008.66,284.32a81.94,81.94,0,0,1-18,8.59c-3.61-5.25-15.59-21.4-31.28-21.58a38.7,38.7,0,0,0-6.5.6,27.41,27.41,0,0,0-5.43,1.39,23.15,23.15,0,0,0-9.08,6.39,22.48,22.48,0,0,0-3.07,4.63c1.06-.57,2.09-1.1,3.09-1.59A105.58,105.58,0,0,0,928,332.11a75.87,75.87,0,0,0,3.35,23.33,76.83,76.83,0,0,0,9.31,19.69,34.17,34.17,0,0,0,14.45,11.63,35,35,0,0,0,14,2.75,27.84,27.84,0,0,0,16-5.71c8.5-5.93,11.68-14.41,14.22-21.47,6.73-18.7,3.37-35.49,1.87-42.5a88.83,88.83,0,0,0-7.41-21.14l14.32-6.76A32.69,32.69,0,0,1,1008.66,284.32Zm-40.39-.77a3,3,0,0,1,1.15-2.22c1.92-1.12,5.54,1.93,7.07,3.22a29.67,29.67,0,0,1,7.93,10.78,13.58,13.58,0,0,1-8.94-.7C971,292.54,967.58,287.55,968.27,283.55Zm27.15,58.78c-.31,4.23-1.82,20-11,31a19.33,19.33,0,0,1-6,5c-1.36.71-7.83,3.85-14.28,1.23-5.55-2.26-7.92-7.52-10.38-12.89a39.51,39.51,0,0,1-3.09-10.23,93,93,0,0,1-2.31-19.14c-.35-22.22,7.43-39.69,13-49.63a21.91,21.91,0,0,0,25.08,12.58,83,83,0,0,1,7,19.08A79.34,79.34,0,0,1,995.42,342.33Z" transform="translate(-286.34 -221.33)"/><path class="cls-4" d="M900.82,274.85a150.69,150.69,0,0,1-3.18-26.69,146.59,146.59,0,0,1,.63-18c-7.54-5.08-18.07-11.17-21.6-7.91-1.82,1.68-1,5.11.25,13.3.83,5.57,1.08,9.23,1.08,9.23,1.34,9.81,2,14.72,2.44,17.55,1.4,9.18,5.1,29.8,11.07,56.93a151.27,151.27,0,0,0-11.75,16.27c-7.64,12.21-22.41,35.83-14.54,47.39,1.34,2,4,4.6,10,5.94a35.91,35.91,0,0,0,16.4.13,29.42,29.42,0,0,0,12.83-7.67,47.43,47.43,0,0,0,8.91-16c2.92-9.11,2.14-16.86,1.5-22.7C912.19,318.55,906.78,304.67,900.82,274.85Zm-5.08,79.75a72,72,0,0,1-2.62,15.69,57.47,57.47,0,0,1-4.35,10.17c-4.12,4.5-9.76,6.35-14.13,4.73-5.37-2-6.74-8.52-6.94-9.44-.42-2-.57-4.69,1.72-11.42a63.47,63.47,0,0,1,7-15,183.37,183.37,0,0,1,17-23A113.68,113.68,0,0,1,895.74,354.6Z" transform="translate(-286.34 -221.33)"/><path class="cls-4" d="M927.28,285.83a111.38,111.38,0,0,0-21.12,15.94,22,22,0,0,0,1.24,7.17c1.34-1.55,2.83-3.19,4.51-4.87l.36-.36a87.23,87.23,0,0,1,11.31-9.59,52.9,52.9,0,0,1,14.83-6.79c.59-1.61,1.25-3.28,2-5q.86-2,1.75-3.79A114.23,114.23,0,0,0,927.28,285.83Z" transform="translate(-286.34 -221.33)"/><path class="cls-4" d="M1123.42,272.33c-.44,0-1.14,0-2,0a6.58,6.58,0,0,0-1,0,4.09,4.09,0,0,0-2,1c-11.5,10.1-18,71-18,71-.79,7.36-1.48,13.54-2,18,0,0-.25,2-1,6-1.3,6.93-2.52,10.76-4.77,12.52a7.82,7.82,0,0,1-3.23,1.48,6.48,6.48,0,0,1-2,0,23.94,23.94,0,0,1,1.85,6.78c.09.78.14,1.52.15,2.22a9.37,9.37,0,0,0,5-1c3.38-1.81,4.64-5.59,5.26-7.8,3.85-13.61,6.83-49.86,7.12-53.32a137.77,137.77,0,0,1,4.1-23.59,147.24,147.24,0,0,1,10.52-28.29Z" transform="translate(-286.34 -221.33)"/><path class="cls-4" d="M1089.15,382.45a1.24,1.24,0,0,1-.27,0c-1.38-.2-2.17-3.25-2.43-4.3-2-7.95-5.65-71.85-6-77.83a31.63,31.63,0,0,0-.5-4c-1.65-8.69-7.3-19.42-14.91-22.09-10-3.52-24.45,5-35,21l-1.58-17.9a54,54,0,0,0,11.68-19.49,40.94,40.94,0,0,0,2.32-11.51,39.62,39.62,0,0,0-2.38-15.51c-.51-1-4-7.81-11.27-9.24-7.78-1.53-14.09,4.19-15.56,5.63-7.36,7.21-6.86,18.24-5.79,36.14a164.6,164.6,0,0,0,2,17.48v0a5.54,5.54,0,0,1,0,1.5c-.55,4.16-6.13,6.79-6,7s2.25-1.54,3-1-.07,2.83-1,5l4-2q1.58,13.66,2.74,28c1.76,22.15,2.49,43.27,2.47,63.22a11.56,11.56,0,0,0,10.05,8.34,12.25,12.25,0,0,0,9.56-3.89l-2.4-71.54a51.52,51.52,0,0,1,6.67-16.3c1.22-1.94,9.35-14.9,14.68-13.46,3.55,1,4.51,9.13,5.12,15.14,2.93,28.39,2.27,37.24,4.1,50.45,2,14.45,4.82,33,17.2,38.48a19.89,19.89,0,0,0,10,1.42c-.14-1.41-.26-2.88-.34-4.42S1089.15,383.85,1089.15,382.45Zm-63.72-132.12a48.85,48.85,0,0,1,1-16c1.27-5.26,2.42-5.85,3-6,2.58-.67,6.65,4.1,8,9a16.14,16.14,0,0,1,.14,7.59c-1.85,9.48-6.93,18.4-10.14,23.41C1026.45,261.46,1025.83,255.39,1025.42,250.33Z" transform="translate(-286.34 -221.33)"/><path class="cls-4" d="M1200.18,375.95c-5.49-16.08-3.4-51.4-3.4-51.4a141.21,141.21,0,0,0-5.17-43,8.65,8.65,0,0,0-1.28-4c-4.26-6.66-18.33-5.79-27-2.3-12.23,4.9-17.35,16.33-18.67,19.55l-1.05-17a54.66,54.66,0,0,0-10.94-4.56c-5.21-1.53-7.82-2.3-10.4-1.69a10.94,10.94,0,0,0-2.63,1c.17,1.76.44,3.46.73,5.15l.09-.13c.17,1.23.37,2.64.57,4.21.07.47.13.94.18,1.42.63,5,1.33,11.35,1.89,18.74,2.29,30.28,2,54.54,2,54.54-.22,19.34-1.31,27.89,4.72,32.22,4,2.86,10.57,3.54,14,.66,3.88-3.26,2.77-10.32,2.4-13-1.66-11.88-2.06-32.33-.33-67a34.35,34.35,0,0,1,6.65-17.62c.38-.54,9.68-13.42,15-11.57,9.8,3.44,2.28,56.42,9.13,86,.82,3.54,2.81,12.26,10,18.46a21.47,21.47,0,0,0,12.82,5.72c6.59.41,12.07-2.7,12-3a13.37,13.37,0,0,0-2,0h0l-2-6a5.23,5.23,0,0,1-3,0C1201.72,380.45,1200.59,377.15,1200.18,375.95Z" transform="translate(-286.34 -221.33)"/><path class="cls-4" d="M1348.81,374.56A33.19,33.19,0,0,1,1345,364c-1.68-13.21-3-27.19-3.93-41.89-1.39-22.74-1.47-44-.73-63.56l39.78.36.93-1.72-8-4.92-33,1.2c.77-4.47,2.4-14.86,1.73-22.85a7.86,7.86,0,0,0-1.28-4.1c-1.11-1.57-2.8-2.46-11.17-4.13-6.54-1.3-7.2-1.09-7.73-.8-2.49,1.37-2.93,5-3.37,12.93-.27,4.92-.54,11.35-.6,18.94l-47.94,2,2.26,4.56,45.31-.73a312.78,312.78,0,0,1-16.63,38.45c-4.4,8.56-8.93,16.38-13.41,23.49q2.29,3,4.67,6.07l27-44.51a216.8,216.8,0,0,0,1.69,50.92c4.24,27.57,11.24,36.69,14,40,2.19,2.59,15.48,18.27,27.24,15.53a8.75,8.75,0,0,1-.39-3.85,16.65,16.65,0,0,1-3-1C1353,381.94,1350.31,377.23,1348.81,374.56Z" transform="translate(-286.34 -221.33)"/><path class="cls-4" d="M1561.66,433.9a20.73,20.73,0,0,1-5.58-1.94c-19.13-10-13.83-47.54-13.32-50.85,1.19-8.13,4.75-34.19,3.62-59.41-.77-17.19-3.44-27.79-5-33.22-1.13-3.92-2.27-7.12-3.08-9.29a46,46,0,0,0-13.36-5,47,47,0,0,0-11.11-.92,65.44,65.44,0,0,0-16.93,9.24,62.29,62.29,0,0,0-13.46,14,51.46,51.46,0,0,0,3.1-13.76,50.59,50.59,0,0,0,.1-6.85c-3.59-2.83-9.66-6.71-17-7.19-3.48-.23-5,.45-6,1.26-2.1,1.79-1.53,4.52-1.77,8-.59,8.61-5.79,17.09-12.36,20.79a18.56,18.56,0,0,1-4.06,1.68c-.16-2.51-1.32-16.58-12.78-23.93-13.95-9-33.18-1.56-43.25,7a39.4,39.4,0,0,0-11.24,16.2,75.84,75.84,0,0,0-8.07,30.29,74.18,74.18,0,0,0,1.86,20.5,130.64,130.64,0,0,1-.62,17.13c-1,10.22-2.62,13.58-5.47,15.63a11.66,11.66,0,0,1-4.54,1.92l-.39-.16q.47,2,.9,4.12a12.43,12.43,0,0,0,2-.59c7.37-3,11.7-12.79,11.08-24.19a33.81,33.81,0,0,0,5,11.08c1.85,2.65,9,12.9,21.26,14.18,10.58,1.1,18.85-5.32,22.26-8,13.88-10.83,16.93-27.49,20.29-45.83a158.2,158.2,0,0,0,2.59-27,52.29,52.29,0,0,0,8.8-5.88,50.57,50.57,0,0,0,7.32-7.45c2.61,40.51,5.51,70.33,7.16,79.73.52,3,1.59,8.07,5.78,11.52a17,17,0,0,0,8,3.49,9.44,9.44,0,0,0,4.32-.77,9,9,0,0,0,4.49-4.43,255.68,255.68,0,0,1-7.53-74.25,66.48,66.48,0,0,1,13.57-20.36c5-5.13,10.41-10.31,15-9.2,2.22.54,7.17,3.26,10,30.61,1.43,13.72,6,47.05.33,75.76a46.9,46.9,0,0,0,6.49,34.79,33.82,33.82,0,0,0,5.13,6.71,36.54,36.54,0,0,0,3,2.71C1542,434.79,1550.94,435.64,1561.66,433.9ZM1432.51,342c-1.35,5.11-2.9,9.86-4.53,14.24a41.46,41.46,0,0,1-12.89,18.29c-4.56,3.7-8.44,6.57-12.17,6-13.41-2.23-27.52-50.86-6.66-79.06a50,50,0,0,1,16.35-14,30.86,30.86,0,0,0,24.79,21.87A150.24,150.24,0,0,1,1432.51,342Zm4-39.8c-3.08,1.85-11.41-3.52-14.68-10.43-.54-1.13-3.43-7.25-.44-10,1.48-1.38,3.79-1.36,5-1.24a20.9,20.9,0,0,1,9.6,9.62C1437.82,294,1439.13,300.66,1436.53,302.22Z" transform="translate(-286.34 -221.33)"/><path class="cls-4" d="M1283.42,325.33,1250.37,273l-24.14-1.69c.39,1.89.93,4.7,1.36,8.12,2.29,18.19-.87,32.47-4.2,46.05-7.7,31.4-12.67,51.65-17,56.08q.5,3.84,1,7.74c.66-.14,1.33-.29,2-.5,9.87-3,20.15-45.15,26.05-102.37a117.73,117.73,0,0,1,15.5,16.71,121.33,121.33,0,0,1,18.75,35.91,63.87,63.87,0,0,0-11.79,14.1c-4.61,7.49-9.19,14.91-7.51,23.64,1.46,7.6,7,12.59,10.41,15.09a43.71,43.71,0,0,0,18.34.83,44.25,44.25,0,0,0,16.75-6.54,23.15,23.15,0,0,0,6.79-11c.5-1.95,1.47-7-3.51-19.94a109.61,109.61,0,0,0-10.73-20.89l7-13-5-5q-2,2.39-4,5Q1284.86,323.36,1283.42,325.33Zm-.66,55.7a17,17,0,0,1-10,7.14c-1.56.36-8.08,1.87-12.59-2.69-4-4-3.42-9.72-3.33-10.55A62.28,62.28,0,0,1,1265,357.7a60.9,60.9,0,0,1,8-9.57,35.1,35.1,0,0,1,8.19,12.42A36.57,36.57,0,0,1,1282.76,381Z" transform="translate(-286.34 -221.33)"/><path class="cls-5" d="M494,301.33" transform="translate(-286.34 -221.33)"/><text class="cls-6" transform="translate(372.74 275.06)">JOURNALIS<tspan class="cls-7" x="219.82" y="0">T</tspan><tspan x="242.8" y="0" xml:space="preserve"> |</tspan><tspan class="cls-8" x="263.56" y="0"> </tspan><tspan x="273.51" y="0">WEB DESIGNER</tspan></text></g></g></svg>